<svg xmlns="http://www.w3.org/2000/svg" width="67.56" height="50.317" viewBox="0 0 67.56 50.317">
  <g id="Group_12" data-name="Group 12" transform="translate(-642.893 -1352.743)">
    <g id="Group_11" data-name="Group 11" transform="translate(532 11.182)">
      <g id="Group_6" data-name="Group 6" transform="translate(-867)">
        <g id="plumber" transform="translate(968.742 1336.561)">
          <path id="Path_17" data-name="Path 17" d="M36.43,33.169A19.543,19.543,0,0,1,31.6,31.256L30.4,30.594v-.545a6.585,6.585,0,0,0,2.117-3.876l.43-2.741a1.778,1.778,0,0,0,.882-3.2,11.67,11.67,0,0,0,.464-1.835h.2a1.7,1.7,0,0,0,.524-3.32,10.074,10.074,0,0,0-1.942-5.564A9.163,9.163,0,0,0,28.62,6.25l.063-.611A.58.58,0,0,0,28.107,5H23.7a.58.58,0,0,0-.577.64l.063.611a9.158,9.158,0,0,0-4.454,3.271,10.1,10.1,0,0,0-1.94,5.556,1.7,1.7,0,0,0,.524,3.32h.149a9.033,9.033,0,0,0,.43,1.4l.22.552a1.778,1.778,0,0,0,1.028,3.079l.43,2.741a6.58,6.58,0,0,0,1.849,3.622v1l-1.206.606a.576.576,0,0,0-.2.1l-.118.059a20.7,20.7,0,0,1-4.518,1.607,8.1,8.1,0,0,0-6.227,7.9V52.934a.58.58,0,0,0,.58.58H42.078a.58.58,0,0,0,.58-.58V41.073A8.1,8.1,0,0,0,36.43,33.169Zm-21.5,19.185H10.31V41.073a6.941,6.941,0,0,1,4.623-6.563ZM22.825,7.637a7.366,7.366,0,0,1,1.139-.408.58.58,0,0,0,.428-.62l-.047-.449h3.119l-.047.449a.58.58,0,0,0,.428.62,7.411,7.411,0,0,1,1.139.407v.792A4.694,4.694,0,0,1,26,12.8a4.681,4.681,0,0,1-3.171-4.439ZM19.667,10.21a8.241,8.241,0,0,1,2-1.924v.074a5.838,5.838,0,0,0,4.041,5.565l.12.039a.579.579,0,0,0,.368,0,5.853,5.853,0,0,0,3.948-5.534V8.284a8.23,8.23,0,0,1,2,1.919,8.9,8.9,0,0,1,1.707,4.79H17.961a8.93,8.93,0,0,1,1.706-4.783Zm-2.349,7.027a.542.542,0,1,1,0-1.084H34.49a.542.542,0,1,1,0,1.084H17.318Zm15.8,1.16c-.026.139-.055.277-.087.414V18.4Zm-14.053,0v1.2l-.088-.222a7.87,7.87,0,0,1-.315-.975Zm1.658,7.6-.505-3.222a.58.58,0,0,0-.573-.49h-.32a.621.621,0,1,1,0-1.242h.32a.58.58,0,0,0,.58-.58V18.4H31.869v2.063a.58.58,0,0,0,.58.58h.3a.574.574,0,0,0,.335.108l.027,0a.621.621,0,0,1-.346,1.136h-.32a.58.58,0,0,0-.573.49l-.505,3.222a5.39,5.39,0,0,1-10.65,0Zm1.863,4.992v-.268c.124.077.251.151.38.221a6.54,6.54,0,0,0,6.164,0l.112-.062V33.2a4.543,4.543,0,0,1-6.656,0V31.3a.576.576,0,0,0,0-.312ZM20.95,32.33l.474-.238v1.332a.58.58,0,0,0,.138.375,5.7,5.7,0,0,0,8.7,0,.58.58,0,0,0,.138-.375V31.916l.459.252v4.4a4.954,4.954,0,1,1-9.908,0ZM31.059,52.354H21.713V47.275a11.882,11.882,0,0,0,9.346.016Zm4.657,0h-3.5V46.375a.58.58,0,0,0-.848-.514,10.722,10.722,0,0,1-9.966-.018.58.58,0,0,0-.85.513v6H16.093V34.184a22.049,22.049,0,0,0,3.7-1.287v3.674a6.113,6.113,0,1,0,12.227,0V32.778a20.325,20.325,0,0,0,3.7,1.405Zm5.782,0H36.875V34.51A6.941,6.941,0,0,1,41.5,41.073Z" fill="#2d5887"/>
          <path id="Path_18" data-name="Path 18" d="M175.366,334.846a.764.764,0,1,0-.764-.764A.764.764,0,0,0,175.366,334.846Z" transform="translate(-149.462 -296.588)" fill="#2d5887"/>
          <path id="Path_19" data-name="Path 19" d="M175.366,359.659a.764.764,0,1,0-.764-.764A.764.764,0,0,0,175.366,359.659Z" transform="translate(-149.462 -319.003)" fill="#2d5887"/>
          <path id="Path_21" data-name="Path 21" d="M167.38,54.107h2.08a.58.58,0,0,0,0-1.16h-2.08a.58.58,0,1,0,0,1.16Z" transform="translate(-142.414 -43.313)" fill="#2d5887"/>
          <path id="Path_22" data-name="Path 22" d="M167.38,34.26h2.08a.58.58,0,0,0,0-1.16h-2.08a.58.58,0,1,0,0,1.16Z" transform="translate(-142.414 -25.384)" fill="#2d5887"/>
        </g>
      </g>
    </g>
    <g id="XMLID_1007_" transform="translate(661.487 1380.29) rotate(-45)">
      <g id="XMLID_1350_" transform="translate(0 6.827)">
        <path id="XMLID_1351_" d="M113.16,83.842l-2.79,2.79-1.495-.4-.4-1.495,2.79-2.79-3.322-.89-3.526,3.526.587,2.19L93.553,98.223l-2.19-.587-3.526,3.526.89,3.322,2.79-2.79,1.495.4.4,1.495-2.79,2.79,3.322.89,3.526-3.526-.587-2.19L102.84,95.6l-.654-.654-6.334,6.334.587,2.19-2.771,2.771-1.258-.337,2.035-2.035-.677-2.527-2.527-.677L89.206,102.7l-.337-1.258,2.771-2.771,2.19.587,12.206-12.206-.587-2.19,2.771-2.771,1.258.337-2.035,2.035.677,2.527,2.527.677,2.035-2.035.337,1.258-2.771,2.771-2.19-.587-5.221,5.221.654.654,4.843-4.843,2.19.587,3.526-3.526Z" transform="translate(-82.42 -76.479)" fill="#2d5887"/>
        <path id="XMLID_1355_" d="M10.494,171.058l2.661-2.661-1.974-1.974,1.242-1.242-.654-.654-1.242,1.242-2.035-2.035L5.831,166.4l.669.669L.036,173.529,0,175.278l1.615,1.615,1.722-.015,6.489-6.489ZM7.139,166.4l1.353-1.353,3.355,3.355-1.353,1.353-1.677-1.677L7.154,166.41Zm2.032,3.34L2.95,175.956l-.956.008L.933,174.9l.02-.983,6.2-6.2,1.008,1.008Z" transform="translate(0 -154.058)" fill="#2d5887"/>
        <path id="XMLID_1357_" d="M0,0H13.888V.925H0Z" transform="translate(12.42 9.819) rotate(-45)" fill="#2d5887"/>
        <path id="XMLID_1358_" d="M0,0H5.677V.925H0Z" transform="translate(2.839 19.396) rotate(-45)" fill="#2d5887"/>
      </g>
    </g>
  </g>
</svg>
