<svg xmlns="http://www.w3.org/2000/svg" viewBox="0 0 158.4 189.44"><defs><style>.cls-1{font-size:39.43px;}.cls-1,.cls-2,.cls-8{fill:#26304e;}.cls-1,.cls-2,.cls-6{font-family:LucidaSans-TypewriterBold, Lucida Sans Typewriter;font-weight:700;font-style:italic;}.cls-2{font-size:15.01px;letter-spacing:0.14em;}.cls-3{fill:#f8b161;}.cls-4{fill:none;stroke:#f47342;stroke-linecap:round;stroke-linejoin:round;stroke-width:1.5px;}.cls-5{fill:#ffcb48;}.cls-6,.cls-8{font-size:140.75px;}.cls-6,.cls-9{fill:#fff;}.cls-7{fill:#f7eb0d;}.cls-8{font-family:Montserratarm-Medium, Montserrat arm;font-weight:500;}</style></defs><title>logo3</title><g id="OBJECTS"><text class="cls-1" transform="translate(22.12 167.12)">HOURS</text><text class="cls-2" transform="translate(39.38 186.36)">SERVICE</text><polygon class="cls-3" points="21.14 185.31 16.25 181.16 21.14 177.01 26.04 181.16 21.14 185.31"/><polygon class="cls-3" points="133.55 185.31 128.66 181.16 133.55 177.01 138.44 181.16 133.55 185.31"/><path class="cls-4" d="M373.58,246.3" transform="translate(-236.34 -65.26)"/><path class="cls-5" d="M301.28,189.65,253.64,164.6a30.77,30.77,0,0,1,0-51.3l47.64-25a30.78,30.78,0,0,1,34,0l45.67,25a30.78,30.78,0,0,1,0,51.3l-45.67,25.05A30.78,30.78,0,0,1,301.28,189.65Z" transform="translate(-236.34 -65.26)"/><text class="cls-6" transform="matrix(1, 0, 0, 1, 53.76, 123.5)">4</text><polygon class="cls-7" points="127.13 23.27 101.22 22.98 64.53 77.07 103.69 27.26 127.13 23.27"/><polygon class="cls-7" points="137.6 103.32 137.6 117.31 110.77 117.31 135.46 115.17 137.6 103.32"/><text class="cls-8" transform="matrix(1, 0, 0, 1, 0.38, 119.9)">2</text><polygon class="cls-9" points="81.05 96.36 81.05 117.6 7.33 117.6 77.22 114.64 81.05 96.36"/><path class="cls-9" d="M254.9,116.55l-16.26-15s6.84-7,13.9-8.86c0,0-10.3,6.83-11,9.07Z" transform="translate(-236.34 -65.26)"/></g></svg>